<?xml version="1.0" encoding="utf-8"?>
<!-- Generator: Adobe Illustrator 22.1.0, SVG Export Plug-In . SVG Version: 6.00 Build 0)  -->
<svg version="1.1" id="Capa_1" xmlns="http://www.w3.org/2000/svg" xmlns:xlink="http://www.w3.org/1999/xlink" x="0px" y="0px"
	 viewBox="0 0 1366 768" style="enable-background:new 0 0 1366 768;" xml:space="preserve">
<style type="text/css">
	.st0{fill:#FFFFFF;}
	.st1{fill:#00A5DC;}
	.st2{fill:#F2F2F2;}
</style>
<path class="st0" d="M423.8,250.4c0,0,77.3,35.3,140.3,33.4c0,0-13.6,195.3,14.3,289.7c0,0-56.5-26.3-100.6-57.1
	c0,0-14.5-55.3-31.6-148.5l34.7,1.9L505.5,492l24.5,12.8c0,0-8.2-137.5-3.4-183.7c0,0-63.3-10.1-90.6-18.4L423.8,250.4z"/>
<path class="st0" d="M581.8,283.2l3.9,176.4c0.6,26.7,3,59.9,7,86.4l6.1,35.3l103.6,50.1l3.4-28.9l-78.3-53.3L620,413.6h45
	l-4.1-46.9l-43.6,2.6l0.7-55.2l67.4-25.7c0,0,10.2-41.8,20.4-54c0,0-32.6,16.1-57.2,30.2C648.6,264.5,628.5,277.9,581.8,283.2z"/>
<path class="st0" d="M722.9,234.4c0,0-15,30.8-21.1,86.1c0,0-15,124-24.5,143.3l76.3,20.6l-37.1,47.2l-67.1-51.1l-5.5,55.2
	l66.1,42.4c0,0,68.4-15.8,109.4-124.6l-8.1,1.7c-20.3,4.3-41.5,3.9-61.6-1.1l-31.5-7.7l32-158.7l38.8,10.3l5.4-28.9
	c0,0-30.6-13.5-41.5-19.9C752.8,249.1,736.5,238.2,722.9,234.4z"/>
<path class="st0" d="M808.7,273.5c0,0-15,100.9-45.6,161.9c0,0,23.2,14.1,81.1-7.1c0,0-3,75.2-70.9,138.8c0,0-20.4,24.4-58.6,28.9
	v39.2c0,0,17.7,9,70.2-34.7c0,0,77.7-58.5,95.4-148.4c0,0,7.3-28.9,15-70.7l-77,21.2l19.8-93.8c0,0,42.2-1.4,70.2-17.7
	c0,0,4.1-6.7,4.8-30.5C912.9,260.7,880.2,285.1,808.7,273.5z"/>
<path class="st1" d="M462.7,179.4l31.8-26.4c0,0-9.3,45.8,43,43.2c0,0,43.9,5.3,46.7-52.9c0,0,11.2-2.6,61.7,22.9
	c0,0-17.3,40.1-82.7,48.5C563.1,214.6,511.7,227.4,462.7,179.4z"/>
<path class="st1" d="M748.9,170.6l29.9-22.8c0,0-0.9,32.9,39.1,31.4c0,0,38.2,1,33.4-47.1c0,0,25.5-2.9,57.6,31.9
	c0,0-22,36.9-90.1,33.6C818.8,197.5,796.8,202.1,748.9,170.6z"/>
<g>
	<path class="st2" d="M645.9,168.1c-1.7,3.8-3.9,7.4-6.4,10.7c-2.5,3.3-5.3,6.5-8.3,9.4c-6,5.8-12.8,10.8-20.2,14.9
		c-3.6,2.1-7.5,3.8-11.3,5.5c-2,0.8-3.9,1.6-5.9,2.3l-3,1l-3,0.9c-8,2.5-16.3,4.1-24.5,5.2l0.2,0c-4.7,1.1-9.3,1.4-14,1.5
		c-4.7,0.1-9.4-0.1-14-0.6c-4.6-0.5-9.2-1.4-13.8-2.5c-4.5-1.1-9-2.5-13.3-4.2c-8.7-3.4-17-7.7-24.6-13l-2.8-2l-2.8-2.1
		c-1.9-1.4-3.6-2.9-5.4-4.4c-1.8-1.5-3.4-3.1-5.2-4.6c-1.7-1.6-3.3-3.3-4.9-4.9c1.7,1.5,3.5,3.1,5.2,4.5c1.8,1.4,3.5,3,5.4,4.3
		c1.8,1.4,3.7,2.8,5.6,4.1l2.8,1.9l2.9,1.8l1.4,0.9l1.5,0.9l3,1.7l3,1.6c1,0.5,2,1.1,3.1,1.5c4.1,2.1,8.3,3.8,12.6,5.3
		c8.6,3.1,17.5,5.1,26.6,6c4.5,0.5,9.1,0.7,13.6,0.5c4.5-0.2,9.1-0.6,13.4-1.5l0.1,0l0,0c8.2-1,16.2-2.7,24.1-4.9
		c7.9-2.3,15.6-5.3,22.9-9.1c3.6-1.9,7.2-4,10.6-6.3c3.4-2.3,6.6-4.9,9.7-7.6c3.1-2.7,6-5.7,8.6-8.8c1.3-1.6,2.6-3.2,3.8-4.9
		C643.8,171.7,644.9,169.9,645.9,168.1z"/>
</g>
<g>
	<path class="st2" d="M908.8,165.3c-2.2,3.6-5,6.7-8,9.6c-3,2.9-6.3,5.6-9.8,7.9c-7,4.7-14.6,8.4-22.6,11c-8,2.7-16.3,4.3-24.6,5.3
		c-2.1,0.3-4.2,0.4-6.3,0.6c-2.1,0.2-4.2,0.2-6.3,0.3c-2.1,0-4.2,0-6.3,0l-6.3-0.2l0.1,0c-3.3,0-6.4-0.4-9.6-0.9
		c-3.1-0.5-6.3-1.2-9.3-2c-6.2-1.6-12.2-3.8-18-6.3c-5.8-2.5-11.5-5.3-17-8.5c-5.5-3.2-10.8-6.5-16-10.2c5.3,3.4,10.8,6.6,16.4,9.5
		c5.6,2.9,11.3,5.6,17.1,7.9c5.8,2.3,11.8,4.3,17.9,5.8c3,0.8,6.1,1.4,9.2,1.9c3.1,0.5,6.2,0.8,9.2,0.8l0,0l0,0l6.2,0.2l6.2-0.1
		c2.1-0.1,4.1-0.1,6.2-0.3c2.1-0.2,4.1-0.2,6.2-0.5c8.2-0.9,16.4-2.4,24.3-5c7.9-2.4,15.5-5.9,22.5-10.3c3.5-2.2,6.9-4.7,10-7.5
		c1.6-1.4,3-2.8,4.5-4.4C906.3,168.6,907.7,167,908.8,165.3z"/>
</g>
<path class="st0" d="M418,219c0,0,145.1,61.7,221.5,15.4c0,0,45.3-34.5,66.3-36.6c0,0,26.4-6.8,47.7,14.2c0,0,9.5,13,28.1,17.9
	c18.6,4.9,82.6,34.7,131.3-6.2c0,0-34.5,47.4-134.5,15.7c0,0-18-4.8-26.7-13.4c0,0-19.8-26.5-52.9-13.8c0,0-25.6,13.4-53.4,32.4
	c0,0-39.1,27.5-105.6,15.7C539.8,260.2,475.9,251,418,219z"/>
</svg>
